<?xml version="1.0" standalone="no"?>
<!DOCTYPE svg PUBLIC "-//W3C//DTD SVG 20010904//EN"
 "http://www.w3.org/TR/2001/REC-SVG-20010904/DTD/svg10.dtd">
<svg version="1.0" xmlns="http://www.w3.org/2000/svg"
 width="700.000000pt" height="700.000000pt" viewBox="0 0 700.000000 700.000000"
 preserveAspectRatio="xMidYMid meet">
<metadata>
Created by potrace 1.14, written by Peter Selinger 2001-2017
</metadata>
<g transform="translate(0.000000,700.000000) scale(0.100000,-0.100000)"
fill="#000000" stroke="none">
<path d="M3298 6995 c-2 -1 -46 -5 -99 -9 -53 -4 -105 -8 -116 -10 -11 -3 -44
-7 -74 -11 -48 -6 -153 -24 -234 -40 -167 -33 -396 -103 -580 -177 -158 -64
-465 -217 -506 -254 -8 -8 -19 -14 -23 -14 -7 0 -200 -128 -236 -157 -8 -6
-51 -40 -95 -74 -332 -258 -654 -630 -874 -1009 -56 -97 -177 -352 -224 -470
-101 -260 -190 -617 -213 -855 -2 -22 -7 -76 -11 -120 -15 -157 -8 -594 12
-706 2 -13 7 -44 9 -69 12 -107 20 -153 51 -290 184 -825 679 -1573 1370
-2069 67 -47 130 -91 140 -98 362 -223 644 -348 1004 -444 62 -17 123 -33 135
-35 11 -2 32 -6 46 -9 61 -13 249 -45 290 -49 247 -28 677 -28 860 0 162 25
295 48 345 61 33 8 70 17 82 19 12 2 33 8 45 13 13 5 25 9 28 9 14 0 106 28
200 59 212 72 464 189 660 306 88 53 262 169 293 195 29 26 21 58 -25 94 -174
138 -538 316 -1048 511 -135 52 -706 280 -750 299 -25 11 -58 26 -75 33 -294
124 -660 323 -880 479 -224 158 -434 358 -555 526 -221 311 -335 611 -380
1005 -8 76 -6 465 4 505 3 13 8 42 12 65 3 22 9 58 14 80 5 22 11 54 15 72 21
120 139 402 227 543 168 267 391 481 715 684 95 59 386 195 473 221 14 4 39
13 55 20 17 7 64 22 105 35 41 12 86 26 100 31 23 8 215 55 264 65 31 6 177
33 211 39 17 2 39 7 51 9 12 2 43 7 70 10 27 4 65 8 84 11 31 4 107 12 195 21
244 24 899 24 1080 -1 17 -2 53 -6 80 -9 124 -13 170 -18 176 -22 10 -6 46 25
52 45 6 25 0 32 -88 108 -324 279 -779 535 -1160 653 -22 7 -50 16 -61 20 -61
23 -324 88 -421 104 -48 8 -235 35 -293 41 -56 7 -526 16 -532 10z"/>
<path d="M4685 4700 c-27 -4 -73 -10 -102 -14 -160 -19 -348 -86 -481 -169
-99 -63 -209 -193 -255 -302 -26 -61 -53 -203 -51 -270 9 -323 221 -575 679
-809 44 -22 82 -41 85 -41 3 -1 45 -20 93 -43 49 -23 91 -42 93 -42 2 0 23 -9
47 -19 23 -11 96 -40 162 -66 66 -25 131 -51 144 -56 14 -6 151 -57 305 -115
155 -58 290 -109 301 -114 11 -4 70 -27 130 -51 266 -103 504 -209 743 -332
82 -42 140 -66 151 -62 10 3 24 18 31 33 24 51 101 286 126 387 29 111 28 107
50 225 9 47 18 92 19 100 2 8 6 40 10 70 4 30 9 66 11 80 21 124 26 692 7 746
-2 7 -46 45 -96 85 -51 41 -94 76 -97 79 -38 40 -358 256 -505 340 -243 140
-539 260 -755 306 -57 12 -188 35 -225 40 -22 3 -53 7 -70 10 -49 9 -496 12
-550 4z"/>
</g>
</svg>
